<svg xmlns="http://www.w3.org/2000/svg" width="300" height="253" version="1.2"><path fill-rule="evenodd" d="M1.4 252.9h298v-47.3H1.4zm64-36.2L76 241.6h-3.1l-2.5-6H57.1l-2.5 6h-3.2L62 216.7zm-1.7 2.6-5.7 14h11.4zm-28.3-2.6v22.6h12.8v2.3H32.6v-24.9zm217.9 24.8q-1.9-.4-3.6-1.1-1.7-.6-3-1.6l2.5-3.5q1.6 1.2 3.7 1.8 2.1.7 4.4.6 2.8 0 4.4-.8 1.5-.9 1.5-2.4 0-1.1-.7-1.8-.7-.6-1.8-.9-1.1-.3-2.8-.6H257.2q-2.8-.5-4.7-1-1.9-.6-3.2-2.1-1.3-1.4-1.3-4.1 0-2.4 1.2-4.1 1.3-1.7 3.6-2.6 2.4-.9 5.7-.9 1.5 0 3.1.3 1.5.3 3.1.9 1.5.6 2.9 1.4l-2.3 3.6q-1.7-1-3.4-1.5-1.8-.6-3.4-.6-2.7 0-4.1.8-1.5.8-1.5 2.3 0 1.2.8 1.8.7.7 1.9 1 1.1.3 3.1.7H259q.1 0 .2.1h.2q2.7.5 4.5 1.1 1.8.7 3 2.1 1.2 1.5 1.2 4 0 2.4-1.2 4-1.3 1.7-3.7 2.6-2.5.8-5.9.8-2 0-4-.3zm-11.9-24.1-.2 9.5h-3.3l-.2-9.5zm-17.8-.7 10.9 24.9h-5.4l-1.8-4.5h-10.8l-1.8 4.5h-5.4l10.9-24.9zm-1.7 6.9-3.8 9.4h7.5zm-28.8-6.9v20.8h12.5v4.1h-17.5v-24.9zm-21.6 0 10.8 24.9H177l-1.8-4.5h-10.9l-1.7 4.5h-5.4l10.9-24.9zm-1.8 6.9L166 233h7.5zm-17.7-6.9v24.9h-5.1v-24.9zm-22.6 0q2.8 0 4.7.8 1.9.8 2.9 2.3 1 1.5 1 3.6 0 1.4-.6 2.6-.6 1.1-1.9 1.8-1.2.8-3 1 1.9.2 3.2 1.1 1.3.8 2 2 .7 1.3.7 2.9 0 2.1-1 3.6-1.1 1.6-3 2.4-2 .8-4.7.8h-11.9v-24.9zm-.2 10.1q1.9 0 2.9-.8.9-.8.9-2.3 0-1.4-1-2.2-1-.7-3-.7h-6.2v6zm-.3 10.7q2.2 0 3.4-.9 1.1-.8 1.1-2.4 0-1.1-.5-1.8-.4-.8-1.4-1.2-.9-.4-2.3-.4h-6.4v6.7zm-43.5 4q-1.8-.3-3.4-1-1.6-.7-3-1.7l1.7-2q1.8 1.4 3.9 2.1 2.2.6 4.8.6 3.7 0 5.7-1.2 2-1.3 2-3.6 0-1.4-.9-2.3-.9-.8-2.3-1.3-1.3-.4-3.5-.8H90.1l-.6-.1q-3-.5-4.8-1-1.8-.6-3.1-1.9-1.3-1.3-1.3-3.6t1.2-3.9q1.2-1.7 3.5-2.5 2.3-.9 5.5-.9 1.5 0 3 .3t3 .9q1.4.6 2.8 1.4l-1.7 2q-1.8-1.2-3.6-1.7-1.8-.6-3.5-.6-3.5 0-5.4 1.3-2 1.3-2 3.6 0 1.4 1 2.3 1 .8 2.4 1.2 1.4.4 3.9.8h.2q.1 0 .2.1h.4q2.7.5 4.5 1.1 1.8.6 3 2 1.2 1.3 1.2 3.5 0 2.3-1.2 3.9-1.3 1.6-3.6 2.5-2.4.8-5.7.8-2.1 0-4-.3zm-74.6-67.3q-1-5.9-1.5-12-.5-6-.5-12.1c0-39.1 15.8-74.4 41.3-100C75.7 24.5 111 8.7 150 8.7c39 0 74.3 15.8 99.8 41.4 25.6 25.6 41.4 60.9 41.4 100q0 6.1-.6 12.1-.5 6.1-1.5 12c-.4 2.4 1.2 4.7 3.6 5.1 2.4.4 4.6-1.2 5-3.6q1.1-6.3 1.7-12.8.5-6.4.5-12.8c0-41.5-16.8-79.1-43.9-106.2-27.1-27.2-64.6-44-106-44-41.4 0-78.9 16.8-106.1 44C16.8 71 0 108.6 0 150.1q0 6.4.6 12.8.5 6.5 1.6 12.8c.4 2.4 2.7 4 5.1 3.6 2.3-.4 3.9-2.7 3.5-5.1zm41.9 6.3H247c2.4 0 4.4-2 4.4-4.4 0-2.5-2-4.4-4.4-4.4h-33.6l-1.1-10.9 6.9 3c.7.3 1.4 0 1.7-.7l.9-1.9 6.5 2.4c.7.2 1.5-.1 1.7-.8l2.1-6.4 13.7 1.7c1.1.1 1.9-1.1 1.3-2l-10.8-17.9 6.4.1c1 0 1.6-1.2 1-2.1l-14.5-20 2.7-1.4c.7-.3 1-1.2.6-1.9l-6.2-9.7 2.4.7c1.2.3 2.1-1.1 1.4-2.1l-9.9-12.5 5.5.5c1.2.1 2-1.4 1.1-2.2-7.2-7-13.5-15.1-17.7-23.7-.3-.5-.7-.7-1.2-.7s-1 .3-1.2.7c-4 8.9-10.9 17-17.7 23.7-.8.8-.2 2.4 1 2.2l5.6-.6-8.4 10.6 14.9 20.8c1.1 1.5 1.6 3.3 1.6 4.9 0 1.4-.4 2.7-.9 3.8q-.3.5-.7 1-.8 1.1-1.9 1.9-.8.6-1.8 1l8.7 13.8c1.1 1.8 1.4 3.6 1.2 5.4q-.2 1.7-1.1 3.2-.9 1.5-2.4 2.4-.4.3-.9.5-1.3.6-2.9.8l-1.6 12.4h-42.3l-1.6-16 9.5 4.2c.7.3 2 0 2.2-.7l.8-2.8 8.7 3.4c.9.3 1.9-.1 2.2-1l2.8-8.4 18.5 2.3c1.4.1 2-1 1.3-2.2l-14.8-23.7 8.7.4c1.4 0 2.2-1.6 1.4-2.8l-19.5-27.1 3.5-1.9c1-.4 1.3-1.5.8-2.5L173.8 80l3.9 1c1.5.4 2.5-1 1.5-2.3l-13.9-17.3 8.4.7c1.5.1 2.3-1.2 1.1-2.2-9.9-8.9-18.3-19.5-23.3-31.1-.4-1-2.3-1-2.8 0-4.9 11.6-13.3 22.1-23.2 31-1.2 1.1-.4 2.3 1.1 2.2l8.3-.6-13.7 17c-1 1.3 0 2.7 1.5 2.3l3.9-1-8.1 13.6c-.6.9-.2 2 .7 2.5l3.6 1.8-19.2 26.6c-.8 1.1 0 2.8 1.4 2.7l8.3-.1-14.4 23.3c-.7 1.3-.1 2.4 1.3 2.2l18.3-2.3 2.8 8.4c.3.9 1.4 1.3 2.2 1l18.5-7.1-2.8 19.4h-38.4L99.1 159v-.1c-1.3-.1-2.4-.5-3.4-1.2q-1.6-.9-2.5-2.4-.9-1.4-1.1-3.2c-.2-1.8.1-3.7 1.2-5.4l8.5-13.8q-.8-.4-1.6-.9c-1.1-.8-2-1.8-2.6-3-.5-1.1-.8-2.4-.9-3.7 0-1.7.5-3.4 1.6-4.9L113 99.8l-8.5-10.6 5.6.6c1.2.2 1.9-1.4 1-2.2-6.8-6.7-13.7-14.8-17.7-23.7-.2-.4-.6-.7-1.1-.7-.5 0-1 .2-1.2.7-4.2 8.6-10.6 16.7-17.8 23.7-.8.8-.1 2.3 1.1 2.2l5.6-.5-9.9 12.5c-.8 1 .1 2.4 1.3 2.1l2.4-.7-6.1 9.7c-.5.7-.2 1.6.6 1.9l2.7 1.4-14.5 20c-.7.9-.1 2.1 1 2.1l6.3-.1-10.7 17.9c-.6.9.2 2.1 1.2 2l13.7-1.7 2.2 6.4c.2.7 1 1 1.6.8l6.6-2.4.8 1.9c.3.7 1.1 1 1.7.7l6.9-3-1.1 10.9h-34c-2.4 0-4.4 1.9-4.4 4.4 0 2.4 2 4.4 4.4 4.4z" style="fill:#2b2a29"/></svg>