<?xml version="1.0" encoding="UTF-8"?>
<!DOCTYPE svg PUBLIC "-//W3C//DTD SVG 1.1//EN" "http://www.w3.org/Graphics/SVG/1.1/DTD/svg11.dtd">
<!-- Creator: CorelDRAW -->
<svg xmlns="http://www.w3.org/2000/svg" xml:space="preserve" width="297mm" height="210mm" version="1.1" style="shape-rendering:geometricPrecision; text-rendering:geometricPrecision; image-rendering:optimizeQuality; fill-rule:evenodd; clip-rule:evenodd"
viewBox="0 0 29700 21000"
 xmlns:xlink="http://www.w3.org/1999/xlink"
 xmlns:xodm="http://www.corel.com/coreldraw/odm/2003">
 <defs>
  <style type="text/css">
   <![CDATA[
    .fil0 {fill:#2B2A29;fill-rule:nonzero}
   ]]>
  </style>
 </defs>
 <g id="Warstwa_x0020_1">
  <metadata id="CorelCorpID_0Corel-Layer"/>
  <path class="fil0" d="M5010.47 15611.81l19731.28 0 0 3132.7 -19731.28 0 0 -3132.7zm4506.96 1838.03l-757.16 0 378.45 -923.59 378.71 923.59zm-491.93 -1094.77l-700.21 1646.2 209.03 0 163.74 -399.57 881.63 0 163.85 399.57 209.05 0 -700.21 -1646.2 -226.88 0zm-1947.01 0l0 1646.2 133.27 0 54.82 0 844.73 0 0 -151.87 -844.73 0 0 -1494.33 -188.09 0zm14879.86 1663.2c150.66,0 279.47,-19.32 386.44,-57.57 106.98,-38.64 188.53,-94.67 244.7,-168.49 56.15,-73.42 84.24,-162.3 84.24,-266.25l0 -2.32c0,-110.14 -26.76,-197.46 -80.23,-261.22 -53.48,-63.77 -119.89,-109.76 -199.23,-138.74 -79.34,-28.59 -177.85,-52.94 -296.41,-73.42 -5.34,-0.77 -10.24,-1.55 -15.16,-2.71 -4.45,-1.16 -9.8,-2.32 -14.69,-3.09 -3.57,-0.77 -7.15,-1.16 -10.71,-1.55 -3.57,-0.38 -6.69,-0.77 -10.24,-1.54 -87.82,-15.07 -156.45,-29.75 -205.94,-43.29 -49.01,-13.52 -90.03,-34.77 -123.01,-63.75 -33.42,-28.98 -49.93,-68.78 -49.93,-119.41l0 -1.16c0,-64.91 32.1,-115.54 96.28,-151.09 63.75,-35.95 153.79,-54.11 269.66,-54.11 73.11,0 147.98,11.99 225.1,35.95 77.1,23.56 151.98,57.96 225.08,102.4l151.55 -236.5c-61.97,-37.09 -126.14,-68.4 -192.56,-94.28 -66.41,-25.51 -134.6,-44.83 -203.7,-57.98 -69.08,-13.52 -137.72,-20.09 -205.47,-20.09 -146.63,0 -270.99,19.71 -374.39,58.36 -102.97,39.03 -181.86,95.44 -236.23,170.02 -54.38,74.2 -81.57,164.23 -81.57,269.73l0 1.16c0,118.63 28.97,210.22 86.91,274.76 57.95,64.54 127.92,109.36 209.95,134.47 82.44,25.51 187.19,47.15 314.21,65.31l25.85 3.48c2.67,0.77 5.35,1.16 8.02,1.16 2.68,0 5.37,0.39 8.04,0.77 76.67,10.83 139.06,22.81 188.09,36.33 48.58,13.53 88.25,34.78 118.56,62.99 30.31,28.21 45.91,66.08 45.91,113.61l0 1.16c0,68.78 -34.34,122.11 -102.08,159.6 -67.74,37.86 -163.57,56.8 -287.04,56.8 -101.19,0 -198.34,-13.91 -291.5,-42.12 -93.15,-27.82 -176.05,-68.01 -249.15,-120.95l-165.81 229.92c60.61,43.67 128.37,80.77 202.8,111.3 74.43,30.52 154.22,53.71 239.8,69.17 85.13,15.46 172.94,23.18 263.86,23.18zm-1301 -1613.31l12.47 624.82 219.37 1.98 12.47 -626.8 -244.31 0zm-795.42 1027.86l-499.3 0 249.54 -621.38 249.76 621.38zm-362.98 -1077.75l-718.48 1646.2 353.89 0 118.72 -295.62 718.51 0 118.83 295.62 353.9 0 -718.5 -1646.2 -226.87 0zm-2127.43 0l0 1646.2 151.55 0 177.83 0 827.3 0 0 -272.82 -827.3 0 0 -1373.38 -329.38 0zm-965.23 1077.75l-499.3 0 249.54 -621.38 249.76 621.38zm-362.99 -1077.75l-718.48 1646.2 353.9 0 118.72 -295.62 718.51 0 118.84 295.62 353.88 0 -718.49 -1646.2 -226.88 0zm-1058.53 1646.2l0 -1646.2 -336.96 0 0 1646.2 336.96 0zm-1936.58 -1646.2l-172.5 0 -156.89 0 0 1646.2 156.89 0 172.5 0 459.54 0c119,0 221.97,-17.77 308.88,-53.71 86.46,-35.94 152.88,-87.33 198.35,-154.58 45.9,-67.24 68.64,-147.23 68.64,-239.97l0 -3.48c0,-70.33 -15.17,-132.93 -45.92,-187.8 -30.31,-55.26 -74.88,-100.47 -133.72,-136.04 -58.82,-35.54 -128.8,-57.96 -209.49,-68 77.56,-11.21 143.53,-33.24 197.91,-66.08 54.36,-32.84 95.39,-73.81 123.91,-123.27 28.07,-49.47 42.34,-105.11 42.34,-166.94 0,-93.14 -21.84,-172.74 -65.96,-239.59 -43.69,-66.85 -108.77,-117.87 -194.33,-153.42 -86.04,-35.54 -190.33,-53.32 -312.9,-53.32l-437.25 0zm0 666.98l0 -395.33 413.62 0c86.47,0 151.99,16.63 197.47,49.47 45.01,32.84 67.74,80.38 67.74,142.98 0,64.92 -21.84,115.16 -65.09,150.33 -43.67,34.77 -106.52,52.55 -188.08,52.55l-425.66 0zm0 707.56l0 -438.22 425.66 0c60.62,0 112.32,8.89 153.77,25.89 41.9,17.39 73.1,42.51 93.6,75.35 20.5,32.86 30.76,72.27 30.76,118.26l0 3.48c0,68.78 -24.96,121.73 -75.33,159.21 -49.92,37.48 -124.81,56.03 -223.76,56.03l-404.7 0zm-2209.98 288.66c147.08,0 272.33,-18.54 376.62,-56.03 103.87,-37.48 183.21,-91.59 238.46,-163.07 54.82,-71.5 82.01,-157.29 82.01,-257.37l0 -2.32c0,-98.15 -26.29,-176.21 -78.89,-233.78 -52.59,-57.98 -118.56,-100.49 -197.88,-127.53 -79.35,-27.05 -178.3,-51.4 -297.75,-72.27 -5.35,-0.77 -10.24,-1.93 -15.14,-3.09 -4.47,-1.16 -9.82,-1.93 -14.72,-2.7 -4.45,-0.77 -8.47,-1.54 -12.47,-2.32 -4.02,-0.77 -7.59,-1.54 -11.15,-2.32 -109.64,-18.93 -196.11,-36.7 -259.41,-54.1 -62.85,-17.39 -115.89,-44.05 -158.67,-79.99 -42.34,-35.94 -63.74,-84.63 -63.74,-146.46l0 -1.16c0,-102.79 42.79,-182.4 127.92,-238.81 85.14,-56.81 205.48,-85.02 360.58,-85.02 76.22,0 153.78,12.36 232.21,36.71 78.46,24.73 158.25,61.83 240.25,111.68l110.98 -127.91c-62.85,-38.64 -126.14,-70.72 -189.86,-95.83 -64.2,-25.12 -128.83,-44.44 -194.78,-57.2 -65.54,-12.75 -131.94,-19.32 -198.8,-19.32 -142.18,0 -263.42,18.93 -364.6,56.81 -100.72,37.48 -177.83,92.74 -230.43,164.62 -52.6,72.26 -78.89,159.21 -78.89,260.84l0 1.16c0,101.24 28.08,180.46 84.24,237.28 56.16,56.8 124.36,97.37 204.14,121.34 80.22,23.57 186.74,46.36 320.02,68.39l37.88 6.57c3.57,0.77 6.7,1.55 9.82,1.93 3.11,0.39 5.8,0.78 8.45,1.55 96.72,15.84 175.62,33.23 237.14,52.16 61.06,18.94 111.42,47.15 150.19,85.02 38.79,37.48 57.95,87.72 57.95,150.32l0 1.16c0,101.25 -44.57,179.69 -133.72,235.73 -89.14,55.65 -215.28,83.47 -377.96,83.47 -112.32,0 -216.62,-15.08 -312.45,-45.21 -95.39,-30.15 -183.18,-75.36 -262.08,-135.65l-113.65 129.07c61.5,45.22 127.92,82.7 198.79,113.24 71.31,30.13 147.54,52.54 229.53,67.61 81.58,15.08 168.49,22.8 259.86,22.8zm-5198.35 -4468.54c-44.84,-260.28 -79.11,-525.67 -102.2,-795.73 -22.54,-263.72 -34.12,-531.54 -34.12,-803.02 0,-2581.06 1046.17,-4917.78 2737.57,-6609.17 1691.39,-1691.4 4028.1,-2737.57 6609.16,-2737.57 2581.06,0 4917.76,1046.16 6609.18,2737.56 1691.4,1691.42 2737.56,4028.12 2737.56,6609.18 0,271.48 -11.58,539.3 -34.12,803.02 -23.08,270.06 -57.36,535.45 -102.2,795.73 -26.89,157.66 79.1,307.29 236.76,334.18 157.66,26.89 307.29,-79.1 334.18,-236.76 48.15,-279.5 84.72,-561.58 108.99,-845.58 24.05,-281.28 36.39,-565 36.39,-850.59 0,-2741.16 -1111.11,-5222.84 -2907.5,-7019.25 -1796.4,-1796.39 -4278.09,-2907.49 -7019.24,-2907.49 -2741.15,0 -5222.84,1111.1 -7019.23,2907.51 -1796.39,1796.39 -2907.5,4278.07 -2907.5,7019.23 0,285.59 12.34,569.31 36.39,850.59 24.27,284 60.84,566.08 108.99,845.58 26.89,157.66 176.52,263.65 334.18,236.76 157.66,-26.89 263.66,-176.52 236.76,-334.18zm2771.89 410.79l12860.43 0c160.15,0 290,-129.84 290,-290 0,-160.15 -129.85,-290 -290,-290l-2219.56 0 -73.05 -720.36 454.57 200.17c43.22,19.02 93.31,-3.08 112.72,-46.16l56.11 -124.48 434.26 155.91c44.25,15.88 95.91,-5.03 110.78,-49.67l141.15 -423.29 905.66 107.27c71.18,8.42 122.63,-68.87 85.51,-130.24l-713.63 -1179.72 420.05 5.11c68.84,0.83 109.12,-81.81 68.26,-138.06l-961.28 -1323.39 179.82 -91.41c48.08,-24.45 67.32,-79.78 37.8,-126.33l-407.77 -643.03 159.78 44.82c79.18,22.2 141.23,-73.38 90.09,-137.79l-656.12 -826.51 369.26 33.17c78.95,7.08 128.75,-90.77 71.69,-145.81 -476.79,-459.9 -898.4,-993.65 -1175.63,-1567.15 -14.53,-30.05 -45.39,-45.67 -78.76,-44.71 -33.36,0.97 -62.31,18.77 -76.03,49.19 -263.55,584.43 -721.47,1123.95 -1172.18,1564.44 -56.19,54.92 -12.21,156.87 65.84,147.94l371.62 -42.53 -560.4 699.23 989.3 1377.07c72.56,100.94 104.46,215.06 103.14,326.66 -1.07,88.3 -21.95,172.6 -59.15,245.47 -12.26,24.11 -26.48,46.57 -42.33,67.34 -34.66,49.24 -77.5,93.06 -127.25,128.79 -36.21,26.01 -75.65,47.79 -117.87,64.43l570.86 911.25c73.24,116.9 98.84,241.77 84.84,357.18 -9.21,75.74 -35.06,147.67 -76,212.89 -40.53,64.47 -94.55,118.89 -160.43,160.23 -17.81,11.21 -36.15,20.96 -54.82,29.3 -59.02,28.39 -123.78,46.35 -192.51,51.4l-108.53 821.38 -2797.52 0 -108.16 -1057.87 627.37 278.88c47.15,20.96 133.15,2.61 147.54,-46.93l53.95 -185.56 575.55 225.09c57.25,22.39 125.61,-6.59 145.08,-65.05l184.85 -554.35 1222.61 148.55c93.1,11.31 137.69,-65.36 87.83,-144.92l-978.61 -1562.15 577.18 22.89c90.14,1.08 142.49,-106.88 89.38,-180.81l-1291.62 -1797.89 235.51 -119.71c62.91,-31.97 86.82,-103.67 49.49,-165.45l-516.95 -855.62 258.21 64.09c104.44,25.92 167.18,-65.98 99.78,-149.99l-915.18 -1140.94 551.16 43.45c103.45,8.15 152.17,-75.52 74.99,-144.87 -656.08,-589.54 -1213.54,-1291.63 -1539.92,-2057.31 -27.51,-64.55 -157.56,-64.55 -185.08,0 -326.39,765.7 -883.52,1462.79 -1539.63,2052.37 -77.22,69.39 -28.48,153.01 74.99,144.87l551.16 -43.45 -907.94 1128.52c-67.52,83.93 -4.68,175.91 99.78,149.99l258.21 -64.09 -541.73 895.92c-37.36,61.78 -13.45,133.44 49.49,165.44l235.51 119.72 -1266.59 1758.76c-53.21,73.88 -0.76,181.89 89.39,180.81l550.12 -6.7 -951.56 1540.57c-49.36,79.91 -5.24,156.73 87.84,144.92l1211.81 -153.97 184.85 554.36c19.47,58.46 87.57,86.97 145.09,65.05l1220.92 -465.74 -183.5 1279.12 -2544.9 0 -110.38 -835.46c-0.47,-3.47 -0.73,-6.82 -0.8,-10.1 -82.33,-8.51 -157.86,-35.17 -223.73,-75.84 -68.57,-42.4 -123.8,-96.75 -163.95,-160.09 -39.25,-61.91 -64.57,-133.32 -74.44,-211.15 -14.93,-117.62 9.47,-243.58 81.14,-359.61l562.96 -911.42c-38.68,-16.12 -74.94,-36.59 -108.39,-60.66 -73.42,-52.86 -131.08,-120.81 -169.52,-196.13 -37.2,-72.86 -58.05,-157.19 -59.13,-245.4 -1.32,-111.76 30.61,-225.91 103.18,-326.65l976.4 -1355.8 -564.49 -704.31 371.63 42.53c78.04,8.93 122.02,-93.02 65.83,-147.94 -450.7,-440.49 -908.63,-980.01 -1172.17,-1564.44 -13.72,-30.42 -42.67,-48.22 -76.04,-49.19 -33.36,-0.96 -64.22,14.66 -78.75,44.71 -277.23,573.5 -698.85,1107.25 -1175.63,1567.15 -57.07,55.04 -7.26,152.89 71.68,145.81l369.27 -33.17 -656.13 826.51c-51.14,64.41 10.92,159.99 90.1,137.79l159.78 -44.82 -407.77 643.03c-29.53,46.55 -10.28,101.88 37.79,126.33l179.83 91.41 -961.28 1323.39c-40.86,56.25 -0.59,138.89 68.25,138.06l420.06 -5.11 -713.64 1179.72c-37.12,61.37 14.33,138.66 85.52,130.24l905.66 -107.27 141.14 423.29c14.87,44.64 66.53,65.55 110.79,49.67l434.25 -155.91 56.12 124.48c19.4,43.08 69.5,65.18 112.72,46.16l454.57 -200.17 -73.06 720.36 -2250.36 0c-160.15,0 -290,129.85 -290,290 0,160.16 129.85,290 290,290z"/>
 </g>
</svg>
